<svg width="24" height="24" viewBox="0 0 24 24" fill="none" xmlns="http://www.w3.org/2000/svg">
<rect x="1" y="6" width="22" height="12" fill="white"/>
<path d="M22.269 19.385H1.731C1.50381 19.385 1.27885 19.3402 1.06896 19.2533C0.859064 19.1664 0.66835 19.0389 0.507705 18.8783C0.347059 18.7176 0.219628 18.5269 0.132688 18.317C0.0457472 18.1071 0.000999451 17.8822 0.000999451 17.655V6.34499C0.000999451 5.88617 0.183267 5.44613 0.507705 5.1217C0.832143 4.79726 1.27217 4.61499 1.731 4.61499H22.269C22.4962 4.61499 22.7211 4.65974 22.931 4.74668C23.1409 4.83362 23.3316 4.96105 23.4923 5.1217C23.6529 5.28234 23.7804 5.47305 23.8673 5.68295C23.9543 5.89284 23.999 6.1178 23.999 6.34499V17.653C23.9991 17.8803 23.9545 18.1053 23.8676 18.3153C23.7807 18.5253 23.6533 18.7162 23.4926 18.8769C23.332 19.0377 23.1412 19.1652 22.9313 19.2522C22.7213 19.3392 22.4963 19.384 22.269 19.384V19.385ZM5.769 15.923V11.423L8.077 14.308L10.384 11.423V15.923H12.692V8.07799H10.384L8.077 10.963L5.769 8.07799H3.461V15.925L5.769 15.923ZM21.231 12H18.923V8.07699H16.616V12H14.308L17.769 16.039L21.231 12Z" fill="black"/>
</svg>
