<svg width="24" height="15" viewBox="0 0 24 15" fill="none" style="background-color: white;" xmlns="http://www.w3.org/2000/svg">
<path d="M22.268 15H1.73C1.50281 15 1.27785 14.9546 1.06796 14.8663C0.858064 14.778 0.667351 14.6486 0.506705 14.4854C0.34606 14.3223 0.218629 14.1286 0.131688 13.9154C0.0447478 13.7022 0 13.4738 0 13.2431V1.75694C0 1.29097 0.182267 0.844086 0.506705 0.514596C0.831143 0.185106 1.27118 0 1.73 0H22.268C22.4952 0 22.7201 0.0454448 22.93 0.133739C23.1399 0.222034 23.3306 0.351449 23.4913 0.514596C23.6519 0.677743 23.7794 0.871426 23.8663 1.08459C23.9533 1.29775 23.998 1.52622 23.998 1.75694V13.241C23.9981 13.4718 23.9535 13.7004 23.8666 13.9137C23.7797 14.127 23.6523 14.3208 23.4916 14.484C23.331 14.6473 23.1402 14.7768 22.9303 14.8651C22.7203 14.9535 22.4953 14.999 22.268 14.999V15ZM5.768 11.4841V6.91402L8.076 9.84394L10.383 6.91402V11.4841H12.691V3.51693H10.383L8.076 6.44685L5.768 3.51693H3.46V11.4861L5.768 11.4841ZM21.23 7.5H18.922V3.51591H16.615V7.5H14.307L17.768 11.6019L21.23 7.5Z" fill="black"/>
</svg>
